<svg xmlns="http://www.w3.org/2000/svg" viewBox="0 0 32 32">
  <defs>
    <linearGradient id="grad" x1="0%" y1="0%" x2="100%" y2="100%">
      <stop offset="0%" style="stop-color:#8e44ad"/>
      <stop offset="50%" style="stop-color:#ff007f"/>
      <stop offset="100%" style="stop-color:#ff9f43"/>
    </linearGradient>
  </defs>
  <rect width="32" height="32" rx="6" fill="url(#grad)"/>
  <!-- Feather Pointed icon -->
  <g transform="translate(5, 5) scale(0.041)">
    <path fill="white" d="M278.5 215.6L23 471c-9.4 9.4-9.4 24.6 0 33.9s24.6 9.4 33.9 0l255.4-255.5c-10.4-3.4-20.4-8.4-29.6-15.6l-4.2-3.2zM416.6 0c-12.7 0-25.4 4.9-35.1 14.6L342.7 53.4c-12.5 12.5-12.5 32.8 0 45.3l4.8 4.8c3.1 3.1 3.1 8.2 0 11.3L299.1 163c-3.1 3.1-8.2 3.1-11.3 0l-4.8-4.8c-12.5-12.5-32.8-12.5-45.3 0l-64.6 64.6c-34 34-34 89.2 0 123.2L192 365c34 34 89.2 34 123.2 0l64.6-64.6c12.5-12.5 12.5-32.8 0-45.3l-4.8-4.8c-3.1-3.1-3.1-8.2 0-11.3l48.4-48.4c3.1-3.1 8.2-3.1 11.3 0l4.8 4.8c12.5 12.5 32.8 12.5 45.3 0l38.8-38.8c9.7-9.7 14.6-22.4 14.6-35.1C538.1 57.2 480.8 0 416.6 0z"/>
  </g>
</svg>
